# Blender 3.6.5
# www.blender.org
o Asteroids.005
v 0.564922 -0.134361 0.377582
v 0.263694 0.365598 -0.230707
v 0.398281 0.293475 0.217181
v 0.379935 0.243841 -0.027289
v -0.086313 0.472416 -0.362699
v -0.248327 0.304699 -0.363394
v -0.227802 0.438017 0.000532
v 0.399331 -0.013618 -0.092761
v 0.418876 -0.387915 0.147500
v -0.360636 -0.271233 0.226459
v -0.468889 -0.012549 0.026884
v -0.492680 -0.074697 -0.249568
v 0.067529 -0.407224 -0.179532
v 0.237245 -0.455309 0.156044
v -0.328875 0.222760 -0.553679
v -0.360303 -0.117637 -0.536805
v 0.142286 -0.434265 0.239275
v -0.063797 0.290092 0.333547
v 0.022906 0.122710 0.437022
v 0.067135 0.317787 0.390583
v 0.308017 -0.204476 -0.131541
v -0.281878 -0.298788 -0.274358
v 0.035894 0.478559 -0.416280
v -0.037461 0.207704 -0.565108
v -0.079171 0.477518 0.085504
v 0.175636 -0.203208 0.413021
v -0.057611 -0.022028 0.440541
v -0.326858 0.183004 -0.173191
v -0.301089 0.151458 0.032599
v -0.032319 -0.526590 0.124369
v -0.172945 -0.156850 -0.609055
v 0.011941 -0.064022 -0.578329
v -0.280847 0.091352 -0.632916
v 0.084054 -0.089242 0.481691
v -0.088788 -0.201970 0.467292
v 0.393251 0.107972 0.399983
v 0.587981 -0.152168 0.271665
v -0.486776 0.109585 -0.390945
v 0.382607 -0.394899 0.357902
v -0.379038 -0.088756 0.259345
v 0.202394 0.263021 -0.438124
v 0.302327 0.307394 -0.297086
v 0.506442 -0.318110 0.347350
v -0.219995 -0.481280 -0.049738
v 0.024079 0.486460 0.033480
v 0.236457 0.102618 0.358441
v -0.286355 0.351213 0.013946
v 0.156911 0.379488 0.327144
v -0.186618 -0.401670 0.291430
v -0.311328 -0.256244 0.323578
v 0.119829 -0.375707 -0.336931
v -0.323247 -0.223972 -0.091844
vn 0.0607 0.1637 0.9846
vn 0.8381 0.5190 -0.1683
vn -0.7029 0.6798 -0.2094
vn 0.8118 -0.2848 -0.5098
vn -0.9476 -0.2843 0.1455
vn -0.0070 0.5145 -0.8575
vn -0.3483 -0.8169 -0.4598
vn -0.2972 -0.5461 0.7833
vn -0.2531 0.9674 -0.0070
vn -0.4336 0.3005 0.8495
vn 0.6787 -0.1801 -0.7120
vn -0.1595 -0.8891 -0.4290
vn 0.3829 0.9194 0.0897
vn -0.9166 0.3749 -0.1386
vn 0.0181 -0.7927 0.6094
vn 0.3742 -0.4834 -0.7914
vn 0.1733 -0.0193 -0.9847
vn 0.1829 -0.3954 0.9001
vn 0.6145 0.0186 0.7887
vn 0.8451 0.1782 -0.5040
vn 0.2278 0.0886 -0.9697
vn -0.2394 -0.2562 0.9365
vn 0.9000 0.1699 -0.4013
vn -0.3940 -0.2561 -0.8827
vn -0.6333 0.7437 0.2143
vn -0.8327 0.5513 -0.0523
vn -0.4609 0.6837 0.5658
vn 0.9603 0.1345 -0.2445
vn -0.8021 0.3795 0.4611
vn -0.7288 0.0334 -0.6839
vn 0.7979 -0.2956 -0.5254
vn -0.7080 -0.6309 -0.3175
vn 0.4559 0.8900 0.0063
vn 0.4374 0.2137 0.8735
vn -0.3760 -0.8766 -0.3005
vn 0.1796 -0.9744 -0.1354
vn -0.5608 0.5920 0.5789
vn 0.3927 0.9069 0.1527
vn 0.1828 -0.8832 0.4319
vn -0.9869 0.0856 0.1367
vn -0.6891 0.6983 0.1933
vn 0.6056 0.5281 -0.5953
vn 0.8266 -0.1025 -0.5534
vn -0.0761 -0.7840 -0.6160
vn -0.3557 0.8406 0.4085
vn -0.6375 -0.7341 0.2337
vn 0.0883 -0.9367 -0.3389
vn -0.6270 0.7760 -0.0687
vn 0.9065 0.4017 0.1298
vn -0.8675 -0.1716 0.4669
vn 0.0748 0.9474 0.3113
vn -0.3838 0.6572 -0.6487
vn -0.9377 -0.1510 0.3129
vn -0.6317 0.6306 0.4509
vn 0.3207 -0.9013 -0.2913
vn 0.8426 -0.5024 -0.1937
vn -0.0093 0.4835 -0.8753
vn -0.0548 0.9984 -0.0105
vn -0.5467 -0.8165 -0.1855
vn 0.3489 -0.9367 0.0291
vn 0.0240 -0.9624 0.2707
vn 0.0516 0.2202 0.9741
vn -0.6998 0.4036 0.5893
vn -0.7567 -0.2019 0.6218
vn 0.9089 -0.3310 0.2535
vn -0.1960 0.1773 0.9644
vn -0.2133 0.1422 0.9666
vn -0.9059 -0.3904 -0.1644
vn -0.7192 0.6948 0.0053
vn -0.2986 0.7457 -0.5956
vn -0.8177 0.0471 -0.5737
vn -0.4361 -0.8660 0.2447
vn -0.8917 -0.2572 -0.3725
vn -0.7209 -0.6521 -0.2347
vn 0.5298 -0.8457 0.0633
vn 0.2213 -0.2265 0.9485
vn -0.1960 0.8270 0.5270
vn 0.4642 0.2379 0.8532
vn -0.2074 0.6895 0.6940
vn -0.8302 0.5369 -0.1499
vn 0.1569 -0.6079 0.7783
vn -0.7809 -0.0186 0.6243
vn -0.8050 0.1138 0.5823
vn 0.7852 0.6139 -0.0813
vn 0.6063 0.7386 -0.2947
vn -0.5292 0.4665 0.7088
vn 0.7944 -0.1755 -0.5816
vn 0.8129 -0.2829 -0.5090
vn 0.1169 -0.1559 0.9808
vn 0.2757 -0.9221 -0.2716
vn -0.6392 -0.6418 0.4236
vn 0.0501 -0.6738 0.7372
vn 0.4900 -0.5224 -0.6979
vn 0.7289 0.4704 0.4974
vn -0.3810 -0.4988 0.7784
vn -0.5559 0.0921 0.8261
vn -0.5130 0.2125 0.8317
vn 0.9167 0.3726 -0.1444
vn 0.3667 0.3698 -0.8537
vn 0.4657 0.2070 0.8604
vt 0.402949 0.147048
vt 0.395759 0.130158
vt 0.410730 0.130538
vt 0.370825 0.100224
vt 0.378616 0.125468
vt 0.368217 0.112787
vt 0.382611 0.088167
vt 0.389743 0.085149
vt 0.387846 0.101010
vt 0.453508 0.112126
vt 0.433399 0.125398
vt 0.443479 0.099623
vt 0.412604 0.106566
vt 0.403997 0.097894
vt 0.405581 0.086481
vt 0.392220 0.075669
vt 0.385811 0.070114
vt 0.395600 0.070677
vt 0.404165 0.066990
vt 0.415052 0.086241
vt 0.404385 0.074399
vt 0.424066 0.121559
vt 0.421256 0.132658
vt 0.384376 0.106821
vt 0.392476 0.116405
vt 0.398012 0.121973
vt 0.390187 0.121830
vt 0.357012 0.108106
vt 0.355239 0.090768
vt 0.428296 0.094749
vt 0.378752 0.086823
vt 0.395406 0.092414
vt 0.390825 0.100885
vt 0.424595 0.110128
vt 0.417878 0.112474
vt 0.427146 0.086375
vt 0.396752 0.060026
vt 0.406043 0.125894
vt 0.410635 0.121177
vt 0.393035 0.132861
vt 0.390050 0.146352
vt 0.398550 0.082455
vt 0.406700 0.107288
vt 0.403637 0.120717
vt 0.396965 0.101189
vt 0.370226 0.097057
vt 0.423190 0.144766
vt 0.421559 0.098263
vt 0.380865 0.107296
vt 0.385911 0.120281
vt 0.428677 0.119825
vt 0.375126 0.086760
vt 0.412030 0.110632
vt 0.418314 0.137875
vt 0.412597 0.094885
s 0
f 1/1/1 46/2/1 26/3/1
f 2/4/2 3/5/2 4/6/2
f 5/7/3 6/8/3 7/9/3
f 8/10/4 9/11/4 21/12/4
f 10/13/5 11/14/5 12/15/5
f 15/16/6 24/17/6 33/18/6
f 31/19/7 22/20/7 16/21/7
f 17/22/8 39/23/8 26/3/8
f 7/9/9 25/24/9 5/7/9
f 18/25/10 19/26/10 20/27/10
f 8/28/11 21/29/11 24/17/11
f 31/19/12 13/30/12 22/20/12
f 25/24/13 2/4/13 23/31/13
f 28/32/14 47/33/14 6/8/14
f 30/34/15 17/22/15 49/35/15
f 51/36/16 31/19/16 32/37/16
f 32/37/17 31/19/17 33/18/17
f 34/38/18 35/39/18 26/3/18
f 46/2/19 34/38/19 26/3/19
f 32/37/20 24/17/20 21/29/20
f 24/17/21 32/37/21 33/18/21
f 46/2/22 1/1/22 36/40/22
f 37/41/23 8/28/23 4/6/23
f 31/19/24 16/21/24 33/18/24
f 6/8/25 38/42/25 28/32/25
f 11/14/26 28/32/26 12/15/26
f 40/43/27 27/44/27 29/45/27
f 8/28/28 42/46/28 4/6/28
f 38/42/29 12/15/29 28/32/29
f 38/42/30 15/16/30 16/21/30
f 9/11/31 8/10/31 37/47/31
f 12/15/32 22/20/32 44/48/32
f 2/4/33 45/49/33 3/5/33
f 34/38/34 46/2/34 20/27/34
f 51/36/35 13/30/35 31/19/35
f 9/11/36 13/30/36 51/36/36
f 20/27/37 25/24/37 47/33/37
f 48/50/38 3/5/38 45/49/38
f 17/22/39 30/34/39 14/51/39
f 29/45/40 47/33/40 28/32/40
f 29/45/41 28/32/41 11/14/41
f 42/46/42 41/52/42 23/31/42
f 8/28/43 41/52/43 42/46/43
f 22/20/44 13/30/44 44/48/44
f 47/33/45 18/25/45 20/27/45
f 49/35/46 10/13/46 44/48/46
f 30/34/47 44/48/47 13/30/47
f 6/8/48 15/16/48 38/42/48
f 1/1/49 37/41/49 3/5/49
f 50/53/50 40/43/50 10/13/50
f 48/50/51 45/49/51 25/24/51
f 2/4/52 25/24/52 45/49/52
f 40/43/53 11/14/53 10/13/53
f 29/45/54 11/14/54 40/43/54
f 9/11/55 14/51/55 13/30/55
f 37/47/56 43/54/56 9/11/56
f 23/31/57 24/17/57 15/16/57
f 25/24/58 23/31/58 5/7/58
f 52/55/59 10/13/59 12/15/59
f 14/51/60 9/11/60 39/23/60
f 14/51/61 39/23/61 17/22/61
f 34/38/62 20/27/62 19/26/62
f 27/44/63 19/26/63 29/45/63
f 44/48/64 52/55/64 12/15/64
f 37/47/65 1/1/65 43/54/65
f 27/44/66 35/39/66 34/38/66
f 34/38/67 19/26/67 27/44/67
f 44/48/68 10/13/68 52/55/68
f 15/16/69 6/8/69 5/7/69
f 23/31/70 15/16/70 5/7/70
f 33/18/71 16/21/71 15/16/71
f 49/35/72 44/48/72 30/34/72
f 38/42/73 16/21/73 12/15/73
f 12/15/74 16/21/74 22/20/74
f 9/11/75 43/54/75 39/23/75
f 39/23/76 43/54/76 1/1/76
f 25/24/77 20/27/77 48/50/77
f 20/27/78 46/2/78 3/5/78
f 46/2/79 36/40/79 3/5/79
f 47/33/80 7/9/80 6/8/80
f 35/39/81 17/22/81 26/3/81
f 19/26/82 18/25/82 29/45/82
f 18/25/83 47/33/83 29/45/83
f 4/6/84 42/46/84 2/4/84
f 42/46/85 23/31/85 2/4/85
f 25/24/86 7/9/86 47/33/86
f 21/12/87 51/36/87 32/37/87
f 51/36/88 21/12/88 9/11/88
f 39/23/89 1/1/89 26/3/89
f 30/34/90 13/30/90 14/51/90
f 10/13/91 49/35/91 50/53/91
f 35/39/92 49/35/92 17/22/92
f 41/52/93 8/28/93 24/17/93
f 36/40/94 1/1/94 3/5/94
f 35/39/95 50/53/95 49/35/95
f 35/39/96 40/43/96 50/53/96
f 40/43/97 35/39/97 27/44/97
f 37/41/98 4/6/98 3/5/98
f 41/52/99 24/17/99 23/31/99
f 48/50/100 20/27/100 3/5/100
