# Blender 3.6.5
# www.blender.org
o Asteroids.001
v 0.711079 0.351029 0.682391
v 0.788962 -0.414327 -0.311136
v 0.902392 0.191571 -0.130415
v 0.833361 -0.161916 -0.037007
v 0.368435 -0.481634 -0.784449
v -0.051941 -0.433240 -0.665662
v 0.101530 0.097749 -0.905491
v 0.601096 -0.274989 0.398798
v 0.236362 0.054621 0.981652
v -0.840177 0.445619 0.072833
v -0.731752 0.201646 -0.412376
v -0.820665 -0.197270 -0.299961
v -0.307837 -0.302845 0.732723
v -0.111296 0.127445 0.921659
v -0.251628 -0.687135 -0.584665
v -0.650339 -0.665412 -0.073878
v -0.238452 0.283101 0.790687
v 0.186802 0.522202 -0.562566
v 0.143200 0.636721 -0.230097
v 0.413343 0.561352 -0.494147
v 0.266722 -0.307831 0.623940
v -0.727313 -0.315895 0.252644
v 0.564021 -0.602242 -0.675592
v 0.179444 -0.805663 -0.292675
v 0.366148 0.172127 -0.843233
v 0.042954 0.535259 0.431324
v -0.128977 0.663923 -0.073870
v -0.305082 -0.132538 -0.568114
v -0.306540 0.158440 -0.520605
v -0.595899 0.171771 0.792554
v -0.400875 -0.837821 0.169131
v -0.023708 -0.853256 0.186614
v -0.309926 -0.825151 -0.321502
v 0.017087 0.672222 0.157429
v -0.362773 0.706560 0.180549
v 0.696478 0.453314 0.136857
v 0.732435 0.187265 0.745339
v -0.616374 -0.398733 -0.569775
v 0.164997 0.374894 0.932736
v -0.682124 0.507592 -0.238582
v 0.598230 -0.700821 -0.177504
v 0.791005 -0.527276 -0.174702
v 0.433924 0.319586 0.925160
v -0.829432 -0.016054 0.570993
v 0.535532 0.060492 -0.756377
v 0.452673 0.446732 0.007251
v -0.077883 0.134172 -0.822624
v 0.616806 0.439841 -0.502117
v -0.710559 0.474973 0.431295
v -0.753292 0.571263 0.081688
v -0.188899 -0.550103 0.750497
v -0.721252 -0.031332 0.072449
vn 0.2513 0.9670 0.0409
vn 0.9821 -0.1881 0.0141
vn -0.2916 -0.3225 -0.9005
vn 0.4895 -0.5914 0.6408
vn -0.9509 0.1332 -0.2795
vn 0.0621 -0.8895 -0.4527
vn -0.7502 -0.5320 0.3926
vn -0.3254 0.8748 0.3590
vn 0.2510 -0.0858 -0.9642
vn -0.0623 0.9411 -0.3323
vn 0.3631 -0.8328 0.4178
vn -0.6467 -0.4970 0.5786
vn 0.8259 0.0906 -0.5565
vn -0.5848 -0.2410 -0.7746
vn -0.2184 0.7123 0.6671
vn -0.0576 -0.8863 0.4596
vn -0.0393 -0.9987 -0.0331
vn 0.1073 0.8933 0.4365
vn 0.5223 0.7815 0.3414
vn 0.7514 -0.6072 0.2582
vn 0.0444 -0.9958 -0.0801
vn -0.1252 0.9745 0.1861
vn 0.8233 -0.4712 0.3165
vn -0.4882 -0.8654 -0.1128
vn -0.1535 0.1856 -0.9706
vn -0.4411 -0.1510 -0.8846
vn 0.0403 0.6537 -0.7557
vn 0.8794 -0.2538 0.4028
vn -0.4439 0.5237 -0.7271
vn -0.5739 -0.7042 -0.4180
vn 0.4676 -0.6114 0.6384
vn -0.9185 -0.3889 0.0717
vn 0.8637 -0.0114 -0.5038
vn 0.4960 0.8541 0.1563
vn -0.8080 -0.3549 0.4703
vn -0.3561 -0.1045 0.9286
vn -0.0915 0.6710 -0.7358
vn 0.8335 0.1731 -0.5247
vn -0.1674 0.5511 0.8175
vn -0.7900 0.0949 -0.6057
vn -0.2288 0.1558 -0.9609
vn 0.6585 -0.7284 -0.1894
vn 0.5827 -0.6550 0.4811
vn -0.5321 -0.6949 0.4838
vn 0.1836 0.4578 -0.8699
vn -0.9034 0.3046 0.3017
vn -0.4578 -0.3792 0.8041
vn -0.1752 -0.1715 -0.9695
vn 0.9621 0.1976 0.1877
vn -0.7791 0.5588 -0.2842
vn 0.6004 0.3525 -0.7178
vn -0.1127 -0.7110 -0.6941
vn -0.8619 0.3489 -0.3680
vn -0.1638 0.5072 -0.8461
vn -0.2236 -0.3045 0.9259
vn 0.4584 -0.1552 0.8751
vn 0.0455 -0.9004 -0.4327
vn 0.4474 -0.0785 -0.8909
vn -0.9108 -0.2274 0.3445
vn -0.1449 0.1178 0.9824
vn -0.3835 0.3908 0.8368
vn 0.2677 0.9635 -0.0012
vn -0.3081 0.6885 -0.6566
vn -0.6423 0.7491 -0.1623
vn 0.5928 0.3551 0.7228
vn 0.0843 0.9925 -0.0889
vn 0.0580 0.9957 -0.0723
vn -0.9509 -0.2369 -0.1991
vn -0.2800 -0.0849 -0.9562
vn -0.0110 -0.6798 -0.7334
vn -0.6302 -0.6214 -0.4655
vn -0.7765 0.3391 0.5311
vn -0.8407 -0.4508 -0.3000
vn -0.9494 -0.2990 0.0962
vn 0.0615 0.1641 0.9845
vn 0.1984 0.9173 0.3453
vn 0.3340 0.6066 -0.7215
vn 0.5224 0.8393 0.1509
vn 0.2746 0.7842 -0.5564
vn -0.4478 -0.2574 -0.8563
vn -0.0064 0.8209 0.5710
vn -0.5778 0.7453 -0.3325
vn -0.5491 0.6903 -0.4712
vn 0.9930 -0.0835 -0.0840
vn 0.8607 -0.3858 -0.3323
vn -0.0962 0.8176 -0.5677
vn 0.5093 -0.6869 0.5185
vn 0.4917 -0.5904 0.6400
vn 0.1628 0.9506 0.2644
vn -0.2710 -0.2805 0.9208
vn -0.8051 0.5393 0.2469
vn -0.1161 0.8047 0.5822
vn 0.0379 -0.8038 0.5937
vn 0.8228 0.5622 0.0834
vn -0.3778 0.8798 0.2885
vn -0.2618 0.9338 -0.2438
vn -0.1707 0.9342 -0.3134
vn 0.9721 -0.1402 0.1880
vn 0.2904 -0.9347 -0.2049
vn 0.5101 0.8429 0.1711
vt 0.743462 0.948315
vt 0.759117 0.922077
vt 0.762676 0.963287
vt 0.721983 0.905054
vt 0.741094 0.908376
vt 0.730262 0.915261
vt 0.698708 0.897478
vt 0.684172 0.903141
vt 0.683684 0.883410
vt 0.722869 0.937178
vt 0.720921 0.968147
vt 0.713814 0.951644
vt 0.644161 0.937731
vt 0.653991 0.918849
vt 0.662004 0.928642
vt 0.683354 0.914668
vt 0.699423 0.919871
vt 0.684963 0.925120
vt 0.684228 0.942931
vt 0.668761 0.952185
vt 0.675180 0.936774
vt 0.710865 0.986874
vt 0.732189 0.970996
vt 0.692940 0.873587
vt 0.663043 0.873623
vt 0.643777 0.885237
vt 0.666061 0.859908
vt 0.688754 0.970644
vt 0.706317 0.900565
vt 0.669405 0.902857
vt 0.674883 0.886471
vt 0.662924 0.980926
vt 0.629860 0.972613
vt 0.642557 0.952911
vt 0.694399 0.961137
vt 0.695387 0.938575
vt 0.617573 0.908081
vt 0.627161 0.925928
vt 0.611315 0.932261
vt 0.776504 0.941786
vt 0.749581 0.925361
vt 0.737280 0.948466
vt 0.670624 0.918016
vt 0.644215 0.920722
vt 0.632317 0.903892
vt 0.660308 0.899036
vt 0.720177 0.911632
vt 0.661319 0.966799
vt 0.704894 0.878378
vt 0.756912 0.889444
vt 0.743160 0.889488
vt 0.709994 0.979120
vt 0.712651 0.915682
vt 0.640385 0.934749
vt 0.683984 0.856553
vt 0.733565 0.961298
vt 0.658209 0.942828
s 0
f 1/1/1 46/2/1 26/3/1
f 2/4/2 3/5/2 4/6/2
f 5/7/3 6/8/3 7/9/3
f 8/10/4 9/11/4 21/12/4
f 10/13/5 11/14/5 12/15/5
f 15/16/6 24/17/6 33/18/6
f 31/19/7 22/20/7 16/21/7
f 17/22/8 39/23/8 26/3/8
f 7/9/9 25/24/9 5/7/9
f 18/25/10 19/26/10 20/27/10
f 8/10/11 21/12/11 24/17/11
f 31/19/12 13/28/12 22/20/12
f 25/24/13 2/4/13 23/29/13
f 28/30/14 47/31/14 6/8/14
f 30/32/15 17/33/15 49/34/15
f 51/35/16 31/19/16 32/36/16
f 32/36/17 31/19/17 33/18/17
f 34/37/18 35/38/18 26/39/18
f 46/2/19 34/40/19 26/3/19
f 32/36/20 24/17/20 21/12/20
f 24/17/21 32/36/21 33/18/21
f 46/2/22 1/1/22 36/41/22
f 37/42/23 8/10/23 4/6/23
f 31/19/24 16/21/24 33/18/24
f 6/8/25 38/43/25 28/30/25
f 11/14/26 28/30/26 12/15/26
f 40/44/27 27/45/27 29/46/27
f 8/10/28 42/47/28 4/6/28
f 38/43/29 12/15/29 28/30/29
f 38/43/30 15/16/30 16/21/30
f 9/11/31 8/10/31 37/42/31
f 12/15/32 22/20/32 44/48/32
f 2/4/33 45/49/33 3/5/33
f 34/40/34 46/2/34 20/50/34
f 51/35/35 13/28/35 31/19/35
f 9/11/36 13/28/36 51/35/36
f 20/27/37 25/24/37 47/31/37
f 48/51/38 3/5/38 45/49/38
f 17/22/39 30/32/39 14/52/39
f 29/46/40 47/31/40 28/30/40
f 29/46/41 28/30/41 11/14/41
f 42/47/42 41/53/42 23/29/42
f 8/10/43 41/53/43 42/47/43
f 22/20/44 13/28/44 44/48/44
f 47/31/45 18/25/45 20/27/45
f 49/34/46 10/13/46 44/48/46
f 30/32/47 44/48/47 13/28/47
f 6/8/48 15/16/48 38/43/48
f 1/1/49 37/42/49 3/5/49
f 50/54/50 40/44/50 10/13/50
f 48/55/51 45/49/51 25/24/51
f 2/4/52 25/24/52 45/49/52
f 40/44/53 11/14/53 10/13/53
f 29/46/54 11/14/54 40/44/54
f 9/11/55 14/52/55 13/28/55
f 37/42/56 43/56/56 9/11/56
f 23/29/57 24/17/57 15/16/57
f 25/24/58 23/29/58 5/7/58
f 52/57/59 10/13/59 12/15/59
f 14/52/60 9/11/60 39/23/60
f 14/52/61 39/23/61 17/22/61
f 34/37/62 20/27/62 19/26/62
f 27/45/63 19/26/63 29/46/63
f 44/48/64 52/57/64 12/15/64
f 37/42/65 1/1/65 43/56/65
f 27/45/66 35/38/66 34/37/66
f 34/37/67 19/26/67 27/45/67
f 44/48/68 10/13/68 52/57/68
f 15/16/69 6/8/69 5/7/69
f 23/29/70 15/16/70 5/7/70
f 33/18/71 16/21/71 15/16/71
f 49/34/72 44/48/72 30/32/72
f 38/43/73 16/21/73 12/15/73
f 12/15/74 16/21/74 22/20/74
f 9/11/75 43/56/75 39/23/75
f 39/23/76 43/56/76 1/1/76
f 25/24/77 20/27/77 48/55/77
f 20/50/78 46/2/78 3/5/78
f 46/2/79 36/41/79 3/5/79
f 47/31/80 7/9/80 6/8/80
f 35/38/81 17/33/81 26/39/81
f 19/26/82 18/25/82 29/46/82
f 18/25/83 47/31/83 29/46/83
f 4/6/84 42/47/84 2/4/84
f 42/47/85 23/29/85 2/4/85
f 25/24/86 7/9/86 47/31/86
f 21/12/87 51/35/87 32/36/87
f 51/35/88 21/12/88 9/11/88
f 39/23/89 1/1/89 26/3/89
f 30/32/90 13/28/90 14/52/90
f 10/13/91 49/34/91 50/54/91
f 35/38/92 49/34/92 17/33/92
f 41/53/93 8/10/93 24/17/93
f 36/41/94 1/1/94 3/5/94
f 35/38/95 50/54/95 49/34/95
f 35/38/96 40/44/96 50/54/96
f 40/44/97 35/38/97 27/45/97
f 37/42/98 4/6/98 3/5/98
f 41/53/99 24/17/99 23/29/99
f 48/51/100 20/50/100 3/5/100
