# Blender 3.6.5
# www.blender.org
o Asteroids.004
v 0.109146 0.225352 0.646443
v 0.613822 0.370844 0.222429
v 0.312384 0.494073 0.349007
v 0.481419 0.369563 0.368918
v 0.470370 0.282557 -0.196004
v 0.243934 0.063912 -0.333572
v 0.015894 0.299974 -0.388162
v 0.426625 0.126397 0.472669
v 0.051152 -0.131690 0.577003
v -0.649048 -0.327409 -0.360553
v -0.444678 -0.198338 -0.537819
v -0.259228 -0.345824 -0.517065
v 0.011236 -0.391725 0.214709
v -0.150636 -0.265394 0.386932
v 0.295235 -0.099563 -0.381678
v 0.083383 -0.414257 -0.321326
v -0.295768 -0.261354 0.262724
v -0.198562 0.333242 -0.193390
v -0.294003 0.249076 -0.056761
v -0.117784 0.429471 -0.057230
v 0.284002 -0.094937 0.427132
v -0.162805 -0.467335 -0.207555
v 0.627703 0.323086 -0.051584
v 0.555684 0.004675 -0.041402
v 0.094228 0.422442 -0.238129
v -0.300407 0.011930 0.215371
v -0.440426 0.086262 -0.107825
v -0.049618 -0.022205 -0.409356
v -0.219275 0.020851 -0.393082
v -0.397703 -0.451043 0.101375
v 0.291877 -0.393002 -0.086949
v 0.475481 -0.223439 0.095237
v 0.340399 -0.221349 -0.279939
v -0.383762 0.096776 0.069798
v -0.580632 -0.080884 -0.094589
v 0.058520 0.378861 0.376868
v 0.211685 0.187630 0.689613
v -0.040782 -0.219119 -0.548086
v -0.165190 -0.090945 0.514431
v -0.602725 -0.160989 -0.437960
v 0.686612 0.191726 0.204254
v 0.676079 0.314887 0.290842
v -0.008192 0.026600 0.635631
v -0.391822 -0.539669 -0.108274
v 0.234830 0.458070 -0.116458
v -0.047348 0.296576 0.202866
v -0.090725 0.201396 -0.431805
v 0.046959 0.503649 0.034976
v -0.615674 -0.353359 -0.130115
v -0.681333 -0.264734 -0.318838
v 0.208465 -0.388059 0.282830
v -0.318971 -0.363265 -0.296564
vn -0.6936 0.6318 0.3461
vn 0.4936 0.7426 0.4527
vn 0.3894 0.1667 -0.9059
vn 0.5265 -0.4832 0.6995
vn -0.3369 -0.5328 -0.7763
vn 0.8070 -0.1726 -0.5648
vn 0.1791 -0.9813 -0.0703
vn -0.9019 0.0589 0.4280
vn 0.3180 0.6463 -0.6936
vn -0.7137 0.6970 -0.0692
vn 0.7635 -0.5586 0.3240
vn 0.1281 -0.9840 0.1234
vn 0.2332 0.9599 -0.1555
vn 0.2630 -0.0484 -0.9636
vn -0.7502 -0.1455 0.6450
vn 0.5906 -0.7940 0.1438
vn 0.7879 -0.5451 -0.2867
vn -0.7521 0.2826 0.5954
vn -0.5649 0.5300 0.6324
vn 0.8655 -0.0042 0.5009
vn 0.8288 -0.4717 -0.3010
vn -0.8648 0.3490 0.3611
vn 0.7223 0.1273 0.6797
vn 0.5803 -0.6755 -0.4549
vn 0.0415 0.5767 -0.8159
vn 0.2379 0.1645 -0.9573
vn -0.3386 0.8254 -0.4517
vn 0.4232 0.2732 0.8639
vn -0.4056 0.5142 -0.7557
vn 0.5206 -0.4852 -0.7026
vn 0.5362 -0.5074 0.6745
vn 0.1170 -0.9115 -0.3943
vn 0.3291 0.9357 -0.1272
vn -0.5802 0.6508 0.4897
vn 0.0130 -0.9998 0.0163
vn -0.1879 -0.7880 0.5863
vn -0.3991 0.7700 -0.4977
vn 0.1561 0.9825 -0.1020
vn -0.6288 -0.2793 0.7257
vn -0.1254 -0.1219 -0.9846
vn 0.0486 0.5151 -0.8558
vn 0.9751 0.1773 -0.1335
vn 0.7121 -0.3620 0.6016
vn 0.3164 -0.9478 0.0393
vn -0.1240 0.8435 -0.5226
vn -0.6401 -0.7683 0.0062
vn 0.0255 -0.9205 0.3899
vn 0.3097 0.3566 -0.8815
vn -0.0072 0.7444 0.6676
vn -0.8179 -0.0393 -0.5740
vn 0.0033 0.9587 -0.2845
vn 0.6602 -0.0447 -0.7498
vn -0.5576 -0.2174 -0.8011
vn -0.2548 0.7015 -0.6656
vn -0.0122 -0.8117 0.5839
vn 0.0190 -0.3410 0.9399
vn 0.8067 -0.2002 -0.5561
vn 0.3404 0.7410 -0.5788
vn -0.0878 -0.9909 -0.1022
vn -0.3254 -0.5755 0.7503
vn -0.5648 -0.5171 0.6431
vn -0.6780 0.6631 0.3171
vn -0.5246 0.6458 -0.5548
vn -0.9596 0.1297 -0.2497
vn -0.3369 0.1483 0.9298
vn -0.7430 0.6390 0.1992
vn -0.7588 0.6180 0.2055
vn 0.0501 -0.7385 -0.6724
vn 0.2266 0.3397 -0.9128
vn 0.6675 0.0549 -0.7426
vn 0.4662 -0.4589 -0.7563
vn -0.6291 -0.7222 0.2876
vn 0.2756 -0.6488 -0.7093
vn 0.0277 -0.9275 -0.3728
vn -0.3248 -0.4332 0.8408
vn -0.7286 0.3999 0.5560
vn -0.2378 0.9190 -0.3144
vn -0.5640 0.6634 0.4917
vn -0.4225 0.8913 -0.1644
vn 0.3116 0.0821 -0.9467
vn -0.7528 0.1000 0.6506
vn -0.8581 0.3157 -0.4049
vn -0.7304 0.4016 -0.5525
vn 0.3813 0.8548 0.3521
vn 0.7159 0.6931 -0.0845
vn -0.5687 0.7573 -0.3212
vn 0.6825 -0.4568 0.5706
vn 0.5270 -0.4808 0.7008
vn -0.7489 0.4444 0.4915
vn -0.0380 -0.8224 0.5676
vn -0.8671 -0.4932 0.0700
vn -0.7773 0.0180 0.6288
vn 0.5271 -0.7877 0.3188
vn -0.3071 0.8010 0.5138
vn -0.9308 0.0730 0.3581
vn -0.8339 0.5469 -0.0739
vn -0.7662 0.6349 -0.0988
vn 0.3826 0.6278 0.6779
vn 0.9204 -0.2185 -0.3241
vn -0.5731 0.6462 0.5041
vt 0.301823 0.873802
vt 0.320606 0.879399
vt 0.306600 0.892893
vt 0.363877 0.879015
vt 0.338189 0.868699
vt 0.347213 0.866630
vt 0.361935 0.904157
vt 0.356165 0.906820
vt 0.350821 0.893022
vt 0.314251 0.947781
vt 0.295798 0.914505
vt 0.312488 0.934169
vt 0.324534 0.903397
vt 0.334049 0.902007
vt 0.337469 0.910379
vt 0.356030 0.914783
vt 0.353667 0.926601
vt 0.350666 0.921370
vt 0.335539 0.926489
vt 0.327766 0.919483
vt 0.339520 0.920693
vt 0.304401 0.907147
vt 0.297009 0.903705
vt 0.352448 0.888956
vt 0.336112 0.886182
vt 0.326362 0.885721
vt 0.334948 0.880371
vt 0.311506 0.924110
vt 0.371126 0.907470
vt 0.347216 0.901524
vt 0.346667 0.893274
vt 0.312114 0.911810
vt 0.316899 0.904706
vt 0.315214 0.929387
vt 0.336579 0.929736
vt 0.314980 0.888693
vt 0.317461 0.895022
vt 0.320988 0.875334
vt 0.300843 0.865601
vt 0.332745 0.853718
vt 0.344658 0.910220
vt 0.328488 0.897838
vt 0.322622 0.889451
vt 0.340780 0.896128
vt 0.366603 0.870510
vt 0.288891 0.922912
vt 0.319213 0.915509
vt 0.352588 0.885876
vt 0.339164 0.879758
vt 0.302381 0.912166
vt 0.355098 0.944591
vt 0.352689 0.935534
vt 0.323134 0.901110
vt 0.293843 0.897395
vt 0.328237 0.910577
s 0
f 1/1/1 46/2/1 26/3/1
f 2/4/2 3/5/2 4/6/2
f 5/7/3 6/8/3 7/9/3
f 8/10/4 9/11/4 21/12/4
f 10/13/5 11/14/5 12/15/5
f 15/16/6 24/17/6 33/18/6
f 31/19/7 22/20/7 16/21/7
f 17/22/8 39/23/8 26/3/8
f 7/9/9 25/24/9 5/7/9
f 18/25/10 19/26/10 20/27/10
f 8/10/11 21/12/11 24/17/11
f 31/19/12 13/28/12 22/20/12
f 25/24/13 2/4/13 23/29/13
f 28/30/14 47/31/14 6/8/14
f 30/32/15 17/22/15 49/33/15
f 51/34/16 31/19/16 32/35/16
f 32/35/17 31/19/17 33/18/17
f 34/36/18 35/37/18 26/3/18
f 46/2/19 34/36/19 26/3/19
f 32/35/20 24/17/20 21/12/20
f 24/17/21 32/35/21 33/18/21
f 46/2/22 1/1/22 36/38/22
f 37/39/23 8/40/23 4/6/23
f 31/19/24 16/21/24 33/18/24
f 6/8/25 38/41/25 28/30/25
f 11/14/26 28/30/26 12/15/26
f 40/42/27 27/43/27 29/44/27
f 8/40/28 42/45/28 4/6/28
f 38/41/29 12/15/29 28/30/29
f 38/41/30 15/16/30 16/21/30
f 9/11/31 8/10/31 37/46/31
f 12/15/32 22/20/32 44/47/32
f 2/4/33 45/48/33 3/5/33
f 34/36/34 46/2/34 20/27/34
f 51/34/35 13/28/35 31/19/35
f 9/11/36 13/28/36 51/34/36
f 20/27/37 25/24/37 47/31/37
f 48/49/38 3/5/38 45/48/38
f 17/22/39 30/32/39 14/50/39
f 29/44/40 47/31/40 28/30/40
f 29/44/41 28/30/41 11/14/41
f 42/51/42 41/52/42 23/29/42
f 8/10/43 41/52/43 42/51/43
f 22/20/44 13/28/44 44/47/44
f 47/31/45 18/25/45 20/27/45
f 49/33/46 10/13/46 44/47/46
f 30/32/47 44/47/47 13/28/47
f 6/8/48 15/16/48 38/41/48
f 1/1/49 37/39/49 3/5/49
f 50/53/50 40/42/50 10/13/50
f 48/49/51 45/48/51 25/24/51
f 2/4/52 25/24/52 45/48/52
f 40/42/53 11/14/53 10/13/53
f 29/44/54 11/14/54 40/42/54
f 9/11/55 14/50/55 13/28/55
f 37/46/56 43/54/56 9/11/56
f 23/29/57 24/17/57 15/16/57
f 25/24/58 23/29/58 5/7/58
f 52/55/59 10/13/59 12/15/59
f 14/50/60 9/11/60 39/23/60
f 14/50/61 39/23/61 17/22/61
f 34/36/62 20/27/62 19/26/62
f 27/43/63 19/26/63 29/44/63
f 44/47/64 52/55/64 12/15/64
f 37/39/65 1/1/65 43/54/65
f 27/43/66 35/37/66 34/36/66
f 34/36/67 19/26/67 27/43/67
f 44/47/68 10/13/68 52/55/68
f 15/16/69 6/8/69 5/7/69
f 23/29/70 15/16/70 5/7/70
f 33/18/71 16/21/71 15/16/71
f 49/33/72 44/47/72 30/32/72
f 38/41/73 16/21/73 12/15/73
f 12/15/74 16/21/74 22/20/74
f 9/11/75 43/54/75 39/23/75
f 39/23/76 43/54/76 1/1/76
f 25/24/77 20/27/77 48/49/77
f 20/27/78 46/2/78 3/5/78
f 46/2/79 36/38/79 3/5/79
f 47/31/80 7/9/80 6/8/80
f 35/37/81 17/22/81 26/3/81
f 19/26/82 18/25/82 29/44/82
f 18/25/83 47/31/83 29/44/83
f 4/6/84 42/45/84 2/4/84
f 42/45/85 23/29/85 2/4/85
f 25/24/86 7/9/86 47/31/86
f 21/12/87 51/34/87 32/35/87
f 51/34/88 21/12/88 9/11/88
f 39/23/89 1/1/89 26/3/89
f 30/32/90 13/28/90 14/50/90
f 10/13/91 49/33/91 50/53/91
f 35/37/92 49/33/92 17/22/92
f 41/52/93 8/10/93 24/17/93
f 36/38/94 1/1/94 3/5/94
f 35/37/95 50/53/95 49/33/95
f 35/37/96 40/42/96 50/53/96
f 40/42/97 35/37/97 27/43/97
f 37/39/98 4/6/98 3/5/98
f 41/52/99 24/17/99 23/29/99
f 48/49/100 20/27/100 3/5/100
